<?xml version="1.0" encoding="UTF-8" standalone="no"?>
<!DOCTYPE svg PUBLIC "-//W3C//DTD SVG 1.1//EN" "http://www.w3.org/Graphics/SVG/1.1/DTD/svg11.dtd">
<svg width="100%" height="100%" viewBox="0 0 1080 1080" version="1.1" xmlns="http://www.w3.org/2000/svg" xmlns:xlink="http://www.w3.org/1999/xlink" xml:space="preserve" xmlns:serif="http://www.serif.com/" style="fill-rule:evenodd;clip-rule:evenodd;stroke-linejoin:round;stroke-miterlimit:2;">
    <rect x="0" y="230.413" width="1080" height="849.587" style="fill:white;"/>
    <g transform="matrix(1,0,0,0.964286,0,0)">
        <rect x="0" y="0" width="1080" height="238.946" style="fill:rgb(76,182,0);"/>
    </g>
    <g transform="matrix(5.44444,0,0,0.5,-1338.96,-12.482)">
        <path d="M296.787,33.453C296.787,14.99 295.41,0 293.714,0L291.325,0C289.629,0 288.253,14.99 288.253,33.453L288.253,196.96C288.253,215.423 289.629,230.413 291.325,230.413L293.714,230.413C295.41,230.413 296.787,215.423 296.787,196.96L296.787,33.453Z" style="fill:white;"/>
    </g>
    <g transform="matrix(5.44444,0,0,0.5,-766.251,-12.482)">
        <path d="M296.787,33.453C296.787,14.99 295.41,0 293.714,0L291.325,0C289.629,0 288.253,14.99 288.253,33.453L288.253,196.96C288.253,215.423 289.629,230.413 291.325,230.413L293.714,230.413C295.41,230.413 296.787,215.423 296.787,196.96L296.787,33.453Z" style="fill:white;"/>
    </g>
</svg>
