<svg xmlns="http://www.w3.org/2000/svg" version="1.1" xmlns:xlink="http://www.w3.org/1999/xlink" xmlns:svgjs="http://svgjs.dev/svgjs" width="128" height="128" viewBox="0 0 128 128"><g transform="matrix(0.42738589211618255,0,0,0.42738589211618255,36.50859084491587,12.33387096774193)"><svg viewBox="0 0 82 155" data-background-color="#000000" preserveAspectRatio="xMidYMid meet" height="241" width="128" xmlns="http://www.w3.org/2000/svg" xmlns:xlink="http://www.w3.org/1999/xlink"><g id="tight-bounds" transform="matrix(1,0,0,1,0.20792079207922143,0.25)"><svg viewBox="0 0 81.58415841584157 154.5" height="154.5" width="81.58415841584157"><g><svg viewBox="0 0 81.58415841584157 154.5" height="154.5" width="81.58415841584157"><g><svg viewBox="0 0 81.58415841584157 154.5" height="154.5" width="81.58415841584157"><g id="textblocktransform"><svg viewBox="0 0 81.58415841584157 154.5" height="154.5" width="81.58415841584157" id="textblock"><g><svg viewBox="0 0 81.58415841584157 154.5" height="154.5" width="81.58415841584157"><g transform="matrix(1,0,0,1,0,0)"><svg width="81.58415841584157" viewBox="0 -29.5 24 45.45" height="154.5" data-palette-color="url(#aad5419b-9b2f-4b41-9815-bc702639fdcb)"><g class="wordmark-text-0" data-fill-palette-color="primary" id="text-0"></g></svg></g></svg></g></svg></g></svg></g></svg></g><defs></defs><mask id="98d01b25-53ac-47c2-82d8-3e2b5586abfb"><g id="SvgjsG1007"><svg viewBox="0 0 81.58415841584157 154.5" height="154.5" width="81.58415841584157"><g><svg viewBox="0 0 81.58415841584157 154.5" height="154.5" width="81.58415841584157"><g><svg viewBox="0 0 81.58415841584157 154.5" height="154.5" width="81.58415841584157"><g id="SvgjsG1006"><svg viewBox="0 0 81.58415841584157 154.5" height="154.5" width="81.58415841584157" id="SvgjsSvg1005"><g><svg viewBox="0 0 81.58415841584157 154.5" height="154.5" width="81.58415841584157"><g transform="matrix(1,0,0,1,0,0)"><svg width="81.58415841584157" viewBox="0 -29.5 24 45.45" height="154.5" data-palette-color="url(#aad5419b-9b2f-4b41-9815-bc702639fdcb)"><g class="wordmark-text-0" data-fill-palette-color="primary" id="SvgjsG1004"><path d="M4.5 0L0 0 0-29.5 4.5-29.5 4.5 0ZM7.5 0L6 0 6-29.5 7.5-29.5 7.5 0ZM10.5 0L9 0 9-29.5 10.5-29.5 10.5 0ZM16.5 0L12 0 12-29.5 16.5-29.5 16.5 0ZM24 0L22.5 0 22.5-29.5 24-29.5 24 0ZM9.15 15.95L9.15 4.35 12.55 4.35Q14.55 4.35 15.45 5.25L15.45 5.25Q16.4 6.1 16.4 7.7L16.4 7.7Q16.4 8.7 15.75 9.6L15.75 9.6Q15.1 10.5 14.05 10.8L14.05 10.8 16.75 15.95 15.3 15.95 12.7 10.85 10.45 10.85 10.45 15.95 9.15 15.95ZM10.45 9.7L12.7 9.7Q13.9 9.7 14.5 9.15L14.5 9.15Q15.05 8.65 15.05 7.7L15.05 7.7Q15.05 6.75 14.5 6.15L14.5 6.15Q13.9 5.6 12.7 5.6L12.7 5.6 10.45 5.6 10.45 9.7Z" fill="white"></path></g></svg></g></svg></g></svg></g></svg></g></svg></g><defs><mask></mask></defs></svg><rect width="81.58415841584157" height="154.5" fill="black" stroke="none" visibility="hidden"></rect></g></mask><linearGradient x1="0" x2="1" y1="0.5" y2="0.5" id="aad5419b-9b2f-4b41-9815-bc702639fdcb"><stop stop-color="#ffa62e" offset="0"></stop><stop stop-color="#f71b3d" offset="1"></stop></linearGradient><rect width="81.58415841584157" height="154.5" fill="url(#aad5419b-9b2f-4b41-9815-bc702639fdcb)" mask="url(#98d01b25-53ac-47c2-82d8-3e2b5586abfb)" data-fill-palette-color="primary"></rect></svg><rect width="81.58415841584157" height="154.5" fill="none" stroke="none" visibility="hidden"></rect></g></svg></g></svg>